# xmcd
# Copyright (C) 1995-1998 Ti Kan
#
# Track frame offsets:
#       150
#       18082
#       60867
#
# Disc length: 1166 seconds
#
# Revision: 0
# Processed by: cddbd v1.5.2PL0 Copyright (c) Steve Scherf et al.
# Submitted via: CD-Import v1.0
#
DISCID=13048c03
DTITLE=Smoke City - Underwater Love
DYEAR=97
DGENRE=
TTITLE0=Underwater Love (Radio Edit)
TTITLE1=Morales Underwater Club Mix
TTITLE2=Voyager Remix
EXTD=
EXTT0=
EXTT1=
EXTT2=
PLAYORDER=
